<svg width="1544" height="500" viewBox="0 0 1544 500" xmlns="http://www.w3.org/2000/svg">
	<defs>
		<linearGradient id="bg" x1="0" y1="0" x2="1" y2="1">
			<stop offset="0" stop-color="#1e1b4b" />
			<stop offset="1" stop-color="#312e81" />
		</linearGradient>
		<linearGradient id="mark" x1="0" y1="0" x2="1" y2="1">
			<stop offset="0" stop-color="#6366f1" />
			<stop offset="1" stop-color="#4338ca" />
		</linearGradient>
	</defs>
	<rect width="1544" height="500" fill="url(#bg)" />
	<circle cx="1330" cy="80" r="220" fill="#4f46e5" opacity="0.18" />
	<circle cx="120" cy="470" r="180" fill="#6366f1" opacity="0.12" />
	<g transform="translate(120, 152)">
		<rect width="196" height="196" rx="44" fill="url(#mark)" />
		<path d="M98 45c-30 0-54 19-54 43 0 14 8 26 21 34l-6 21c-1 3 2 5 5 4l24-14c3 1 7 1 10 1 30 0 54-19 54-43S128 45 98 45z" fill="#ffffff" />
		<path d="M106 60l-25 34h16l-8 27 27-37h-17l7-24z" fill="#4f46e5" />
	</g>
	<g fill="#ffffff" font-family="Helvetica, Arial, sans-serif">
		<text x="376" y="238" font-size="76" font-weight="700" letter-spacing="-1">Clanker Support</text>
		<text x="380" y="308" font-size="30" fill="#c7d2fe">AI customer support for WordPress — answers from your</text>
		<text x="380" y="352" font-size="30" fill="#c7d2fe">knowledge base, human handoff built in.</text>
	</g>
</svg>
